# AST/ASF file generated using VICON BodyLanguage
# -----------------------------------------------
:version 1.10
:name VICON
:units
  mass 1.0
  length 0.45
  angle deg
:documentation
   .ast/.asf automatically generated from VICON data using
   VICON BodyBuilder and BodyLanguage model FoxedUp or BRILLIANT.MOD
:root
   order TX TY TZ RX RY RZ
   axis XYZ
   position 0 0 0  
   orientation 0 0 0 
:bonedata
  begin
     id 1 
     name lhipjoint
     direction 0.570549 -0.739093 0.358072 
     length 2.41801 
     axis 0 0 0  XYZ
  end
  begin
     id 2 
     name lfemur
     direction 0.34202 -0.939693 0  
     length 7.44434  
     axis 0 0 20  XYZ
    dof rx ry rz
    limits (-160.0 20.0)
           (-70.0 70.0)
           (-60.0 70.0)
  end
  begin
     id 3 
     name ltibia
     direction 0.34202 -0.939693 0   
     length 7.60047   
     axis 0 0 20   XYZ
    dof rx
    limits (-10.0 170.0)
  end
  begin
     id 4 
     name lfoot
     direction 0.0909041 -0.249757 0.964032   
     length 2.03437   
     axis -90 7.62852e-016 20   XYZ
    dof rx rz
    limits (-45.0 90.0)
           (-70.0 20.0)
  end
  begin
     id 5 
     name ltoes
     direction 1.53547e-011 -4.2174e-011 1   
     length 1.02054   
     axis -90 7.62852e-016 20   XYZ
    dof rx
    limits (-90.0 20.0)
  end
  begin
     id 6 
     name rhipjoint
     direction -0.558096 -0.746754 0.361784   
     length 2.3932  
     axis 0 0 0  XYZ 
  end
  begin
     id 7 
     name rfemur
     direction -0.34202 -0.939693 0   
     length 7.3886   
     axis 0 0 -20   XYZ
    dof rx ry rz
    limits (-160.0 20.0)
           (-70.0 70.0)
           (-70.0 60.0)
  end
  begin
     id 8 
     name rtibia
     direction -0.34202 -0.939693 0   
     length 7.4839   
     axis 0 0 -20   XYZ
    dof rx
    limits (-10.0 170.0)
 end
 begin
     id 9 
     name rfoot
     direction -0.114619 -0.314914 0.942174   
     length 2.25127  
     axis -90 -7.62852e-016 -20   XYZ
    dof rx rz
    limits (-45.0 90.0)
           (-20.0 70.0)
  end
  begin
     id 10 
     name rtoes
     direction -1.53518e-011 -4.21881e-011 1   
     length 1.11821   
     axis -90 -7.62852e-016 -20   XYZ
    dof rx
    limits (-90.0 20.0)
  end
  begin
     id 11 
     name lowerback
     direction -0.00902269 0.996426 -0.0839821   
     length 2.25052   
     axis 0 0 0   XYZ
    dof rx ry rz
    limits (-20.0 45.0)
           (-30.0 30.0)
           (-30.0 30.0)
  end
  begin
     id 12 
     name upperback
     direction 0.0370973 0.999169 -0.0168941   
     length 2.24876   
     axis 0 0 0   XYZ
    dof rx ry rz
    limits (-20.0 45.0)
           (-30.0 30.0)
           (-30.0 30.0)
  end
  begin
     id 13 
     name thorax
     direction 0.0402726 0.998931 0.0227027   
     length 2.26408   
     axis 0 0 0   XYZ
    dof rx ry rz
    limits (-20.0 45.0)
           (-30.0 30.0)
           (-30.0 30.0)
  end
  begin
     id 14 
     name lowerneck
     direction -0.0733697 0.98508 0.155675   
     length 1.58204   
     axis 0 0 0   XYZ
    dof rx ry rz
    limits (-20.0 45.0)
           (-30.0 30.0)
           (-30.0 30.0)
  end
  begin
     id 15 
     name upperneck
     direction 0.0426554 0.993501 -0.105526   
     length 1.61222   
     axis 0 0 0   XYZ
    dof rx ry rz
    limits (-20.0 45.0)
           (-30.0 30.0)
           (-30.0 30.0)
  end
  begin
     id 16
     name head
     direction 0.020792 0.998384 -0.0528868  
     length 1.61527  
     axis 0 0 0   XYZ
    dof rx ry rz
    limits (-20.0 45.0)
           (-30.0 30.0)
           (-30.0 30.0)
  end
  begin
     id 17 
     name lclavicle
     direction 0.967109 0.155462 -0.201325  
     length 3.59357  
     axis 0 0 0   XYZ
    dof ry rz
    limits (-20.0 10.0)
           (0.0 20.0)
  end
  begin
     id 18 
     name lhumerus
     direction 1 -4.48968e-011 2.38195e-027   
     length 5.38154   
     axis 180 -30 -90   XYZ
    dof rx ry rz
    limits (-60.0 90.0)
           (-90.0 90.0)
           (-90.0 90.0)
  end
  begin
     id 19
     name lradius
     direction 1 -4.48961e-011 4.85371e-027   
     length 3.33312   
     axis 180 -30 -90   XYZ
    dof rx
    limits (-10.0 170.0)
  end
  begin
     id 20
     name lwrist
     direction 1 -4.48961e-011 4.76515e-027   
     length 1.66656   
     axis -3.27502e-015 90 90   XYZ
    dof ry
    limits (-180.0 0.0)
 end
  begin
     id 21 
     name lhand
     direction 1 -4.48951e-011 9.53074e-027   
     length 0.710789   
     axis -6.08098e-015 90 90   XYZ
    dof rx rz
    limits (-90.0 90.0)
           (-45.0 45.0)
  end
  begin
     id 22 
     name lfingers
     direction 1 -4.48953e-011 1.90613e-026   
     length 0.573057   
     axis -1.21619e-014 90 90   XYZ
    dof rx
    limits (0.0 90.0)
  end
  begin
     id 23
     name lthumb
     direction 0.707107 -6.34973e-011 0.707107   
     length 0.822798   
     axis -90 45 -9.86923e-015   XYZ
    dof rx rz
    limits (-45.0 45.0)
           (-45.0 45.0)
  end
  begin
     id 24 
     name rclavicle
     direction -0.9585 0.265289 -0.104398   
     length 3.42039  
     axis 0 0 0   XYZ 
    dof ry rz
    limits (-10.0 20.0)
           (-20.0 0.0)
  end
  begin
     id 25 
     name rhumerus
     direction -1 -4.48977e-011 2.21478e-027  
     length 5.16954   
     axis 180 30 90   XYZ
    dof rx ry rz
    limits (-90.0 60.0)
           (-90.0 90.0)
           (-90.0 90.0)
  end
  begin
     id 26 
     name rradius
     direction -1 -4.48967e-011 5.63677e-027   
     length 3.38287   
     axis 180 30 90   XYZ
    dof rx
    limits (-10.0 170.0)
  end
  begin
     id 27 
     name rwrist
     direction -1 -4.48967e-011 4.76501e-027   
     length 1.69144   
     axis -3.27502e-015 -90 -90   XYZ
    dof ry
    limits (-180.0 0.0)
  end
  begin
     id 28
     name rhand
     direction -1 -4.48902e-011 9.53292e-027   
     length 0.817967   
     axis -6.08098e-015 -90 -90   XYZ
    dof rx rz
    limits (-90.0 90.0)
           (-45.0 45.0)
  end
  begin
     id 29
     name rfingers
     direction -1 -4.49012e-011 1.90561e-026   
     length 0.659466   
     axis -1.21619e-014 -90 -90   XYZ
    dof rx
    limits (0.0 90.0)
  end
  begin
     id 30
     name rthumb
     direction -0.707107 -6.34944e-011 0.707107   
     length 0.946865   
     axis -90 -45 9.86923e-015   XYZ
    dof rx rz
    limits (-45.0 45.0)
           (-45.0 45.0)
  end
:hierarchy
  begin
    root lhipjoint rhipjoint lowerback
    lhipjoint lfemur
    lfemur ltibia
    ltibia lfoot
    lfoot ltoes
    rhipjoint rfemur
    rfemur rtibia
    rtibia rfoot
    rfoot rtoes
    lowerback upperback
    upperback thorax
    thorax lowerneck lclavicle rclavicle
    lowerneck upperneck
    upperneck head
    lclavicle lhumerus
    lhumerus lradius
    lradius lwrist
    lwrist lhand lthumb
    lhand lfingers
    rclavicle rhumerus
    rhumerus rradius
    rradius rwrist
    rwrist rhand rthumb
    rhand rfingers
  end

#!OML:ASF F:\twosubjects\two\wednesday\Session 1\Justin1.ASF
:FULLY-SPECIFIED
:DEGREES
83
root 4.65463 17.9101 8.60333 -177.641 2.09387 -174.722
lowerback 1.74448 -1.20648 1.4631
upperback 1.559 -1.34622 4.64927
thorax 0.699018 -0.572476 3.98089
lowerneck -19.4824 -2.7031 -10.3594
upperneck 22.4705 -1.23745 4.36834
head 10.5565 -0.763461 3.14423
rclavicle 0 1.59028e-014
rhumerus -34.1156 -8.92114 -80.4238
rradius 27.8691
rwrist -10.0873
rhand -9.98099 17.7099
rfingers 7.12502
rthumb 16.002 -11.6492
lclavicle 0 1.59028e-014
lhumerus -36.0016 8.65776 84.8481
lradius 32.6804
lwrist -9.95202
lhand 3.43559 37.1226
lfingers 7.12502
lthumb 28.8767 64.9075
rfemur -15.1986 2.50759 28.8598
rtibia 21.465
rfoot -4.30518 0.406906
rtoes 19.0697
lfemur -11.3314 2.95658 -13.0108
ltibia 66.2118
lfoot 7.02622 -9.57245
ltoes -1.10355
84
root 4.66643 17.916 8.45224 -177.727 2.17779 -174.328
lowerback 1.67158 -1.07882 1.87637
upperback 1.66076 -1.16817 4.64167
thorax 0.824707 -0.47501 3.73624
lowerneck -19.1787 -2.69814 -10.2725
upperneck 22.1928 -1.32168 4.44906
head 10.4033 -0.78376 3.13981
rclavicle -3.57812e-015 1.82882e-014
rhumerus -33.837 -8.85419 -80.6916
rradius 27.995
rwrist -9.90234
rhand -10.6644 19.8083
rfingers 7.12502
rthumb 15.3437 -9.60239
lclavicle -3.57812e-015 1.82882e-014
lhumerus -36.054 8.35644 84.9487
lradius 32.828
lwrist -9.33098
lhand 3.11989 37.2068
lfingers 7.12502
lthumb 28.5751 65.0428
rfemur -14.2916 2.44672 29.4071
rtibia 21.0548
rfoot -4.70158 0.354821
rtoes 18.4519
lfemur -12.4516 3.2849 -12.4588
ltibia 67.4036
lfoot 5.29973 -9.47329
ltoes -1.52268
85
root 4.67728 17.9141 8.30415 -178.011 2.26756 -174.052
lowerback 1.89262 -0.982755 2.19633
upperback 1.72407 -1.0212 4.59347
thorax 0.751025 -0.395017 3.50728
lowerneck -18.669 -2.70061 -10.4723
upperneck 21.8453 -1.43409 4.86551
head 10.1939 -0.800916 3.29883
rclavicle -7.95139e-015 -1.59028e-015
rhumerus -33.8736 -8.7294 -80.793
rradius 28.5306
rwrist -10.4282
rhand -10.4539 18.2177
rfingers 7.12502
rthumb 15.5465 -11.1774
lclavicle -7.95139e-015 -1.59028e-015
lhumerus -36.1761 8.31815 84.8694
lradius 32.8608
lwrist -9.18836
lhand 3.26592 37.0788
lfingers 7.12502
lthumb 28.7146 64.8913
rfemur -13.2459 2.48133 29.8006
rtibia 20.7543
rfoot -5.11707 0.191869
rtoes 18.8774
lfemur -13.3376 3.55643 -12.0631
ltibia 68.3469
lfoot 4.07429 -9.42621
ltoes -1.37339
86
root 4.68836 17.9117 8.16597 -178.043 2.40777 -173.78
lowerback 1.94668 -0.882886 2.52643
upperback 1.69358 -0.876399 4.55526
thorax 0.67661 -0.317896 3.28075
lowerneck -18.6847 -2.8117 -10.4804
upperneck 22.002 -1.5781 4.8752
head 10.2667 -0.865996 3.28734
rclavicle 6.90777e-015 -4.29375e-014
rhumerus -33.9184 -8.39506 -81.018
rradius 28.726
rwrist -10.4359
rhand -11.4166 17.8182
rfingers 7.12502
rthumb 14.6191 -11.6465
lclavicle 6.90777e-015 -4.29375e-014
lhumerus -36.312 8.43896 84.7121
lradius 33.0479
lwrist -9.25347
lhand 3.41227 36.8511
lfingers 7.12502
lthumb 28.8544 64.6398
rfemur -12.5583 2.41189 30.2041
rtibia 20.532
rfoot -5.48701 0.294882
rtoes 16.4288
lfemur -14.625 3.93146 -11.6794
ltibia 69.1113
lfoot 3.00262 -9.27642
ltoes -0.783247
87
root 4.69895 17.9108 8.02983 -177.949 2.51725 -173.747
lowerback 1.75462 -0.760401 2.4514
upperback 1.64196 -0.727498 4.54798
thorax 0.726458 -0.246434 3.3116
lowerneck -18.5283 -2.92097 -10.3011
upperneck 22.0829 -1.68829 4.49124
head 10.2734 -0.944317 3.10524
rclavicle 3.97569e-016 4.77083e-015
rhumerus -33.7701 -8.00901 -81.226
rradius 28.8329
rwrist -10.245
rhand -12.0444 19.1608
rfingers 7.12502
rthumb 14.0142 -10.3467
lclavicle 3.97569e-016 4.77083e-015
lhumerus -36.6025 8.54547 84.7136
lradius 33.4209
lwrist -8.92393
lhand 3.15436 36.6624
lfingers 7.12502
lthumb 28.6081 64.4929
rfemur -12.0762 2.21193 30.3444
rtibia 20.3951
rfoot -5.74024 0.480236
rtoes 14.0896
lfemur -16.0217 4.30898 -11.622
ltibia 69.6687
lfoot 1.91907 -9.35289
ltoes 0.092937
88
root 4.71398 17.9078 7.88977 -177.885 2.67958 -173.911
lowerback 1.54479 -0.634556 2.04825
upperback 1.65261 -0.586686 4.52603
thorax 0.854062 -0.18496 3.51271
lowerneck -18.4203 -2.94239 -10.296
upperneck 22.0683 -1.72656 4.4877
head 10.2511 -0.960761 3.09762
rclavicle -1.26725e-014 2.8625e-014
rhumerus -33.4256 -7.77443 -81.3265
rradius 28.9576
rwrist -10.3381
rhand -11.5876 19.9211
rfingers 7.12502
rthumb 14.4544 -9.55548
lclavicle -1.26725e-014 2.8625e-014
lhumerus -36.7685 8.79073 84.7389
lradius 33.5588
lwrist -8.56812
lhand 3.42549 37.4041
lfingers 7.12502
lthumb 28.8671 65.1906
rfemur -11.5654 2.59887 30.2317
rtibia 20.3531
rfoot -6.16061 0.226027
rtoes 13.5435
lfemur -17.2861 4.67727 -11.8035
ltibia 70.0586
lfoot 0.814432 -9.57279
ltoes 0.41723
89
root 4.73167 17.9012 7.75355 -177.894 2.79611 -173.86
lowerback 1.55856 -0.499055 1.97198
upperback 1.62372 -0.410962 4.47576
thorax 0.80875 -0.100364 3.502
lowerneck -18.4327 -2.95196 -10.5033
upperneck 22.1763 -1.79897 4.98127
head 10.3032 -0.952677 3.30323
rclavicle -5.96354e-016 -5.24792e-014
rhumerus -33.2127 -7.5691 -81.5368
rradius 29.0164
rwrist -10.607
rhand -11.5635 19.9443
rfingers 7.12502
rthumb 14.4776 -9.53062
lclavicle -5.96354e-016 -5.24792e-014
lhumerus -36.9075 8.97003 84.6228
lradius 33.5859
lwrist -8.45648
lhand 3.85111 38.0535
lfingers 7.12502
lthumb 29.2735 65.7699
rfemur -11.0244 3.16301 30.3592
rtibia 20.4037
rfoot -6.77212 -0.196271
rtoes 12.9867
lfemur -18.5109 4.97379 -11.6972
ltibia 70.3416
lfoot -0.588914 -9.70416
ltoes -1.7133
90
root 4.74119 17.8926 7.61797 -178.02 2.96527 -173.754
lowerback 1.70277 -0.284952 2.06634
upperback 1.56342 -0.117848 4.41759
thorax 0.651647 0.0460507 3.38561
lowerneck -17.8676 -2.97271 -10.6278
upperneck 21.8692 -1.94321 5.34213
head 10.1021 -0.985279 3.42698
rclavicle 2.48481e-015 -4.17448e-014
rhumerus -33.2505 -7.32994 -81.7156
rradius 29.3036
rwrist -11.1679
rhand -12.1922 19.2956
rfingers 7.12502
rthumb 13.8717 -10.2218
lclavicle 2.48481e-015 -4.17448e-014
lhumerus -37.256 8.77387 84.6489
lradius 33.8768
lwrist -8.16871
lhand 3.27773 37.5465
lfingers 7.12502
lthumb 28.7259 65.357
rfemur -10.4406 3.21937 30.5498
rtibia 20.5453
rfoot -7.35141 -0.122386
rtoes 12.3017
lfemur -19.5486 5.20942 -11.5724
ltibia 70.4758
lfoot -1.88231 -9.79899
ltoes -3.46107
91
root 4.74633 17.8813 7.47864 -178.126 3.0118 -173.517
lowerback 1.76396 -0.180508 2.38352
upperback 1.60527 0.0315204 4.38059
thorax 0.653391 0.125995 3.16703
lowerneck -17.6572 -3.03937 -10.6658
upperneck 21.636 -2.07868 5.43343
head 9.99231 -1.04166 3.44139
rclavicle 9.64106e-015 -2.38542e-015
rhumerus -33.1127 -7.19992 -81.8891
rradius 29.7045
rwrist -11.3423
rhand -12.5592 18.6077
rfingers 7.12502
rthumb 13.5181 -10.9335
lclavicle 9.64106e-015 -2.38542e-015
lhumerus -37.407 8.63173 84.7125
lradius 34.1947
lwrist -7.78259
lhand 3.11313 37.8477
lfingers 7.12502
lthumb 28.5687 65.6848
rfemur -9.88963 3.09295 30.8764
rtibia 20.7569
rfoot -8.03997 -0.0253472
rtoes 11.3011
lfemur -20.5419 5.3057 -11.346
ltibia 70.4561
lfoot -2.82481 -9.89249
ltoes -3.28759
92
root 4.75345 17.8579 7.33607 -178.429 2.503 -173.226
lowerback 2.01345 -0.354019 2.80276
upperback 1.70474 -0.173812 4.34795
thorax 0.621397 0.0324847 2.90075
lowerneck -17.9057 -3.14435 -10.7163
upperneck 21.7616 -2.20204 5.49123
head 10.0966 -1.09734 3.45603
rclavicle 5.56597e-015 1.19271e-015
rhumerus -32.8022 -7.0239 -82.1121
rradius 29.9813
rwrist -11.0345
rhand -12.3687 18.6049
rfingers 7.12502
rthumb 13.7017 -10.924
lclavicle 5.56597e-015 1.19271e-015
lhumerus -37.4213 8.94321 84.5349
lradius 34.2945
lwrist -7.60319
lhand 3.35607 38.3971
lfingers 7.12502
lthumb 28.8008 66.1949
rfemur -9.10312 2.83696 31.2712
rtibia 20.9276
rfoot -8.80012 -0.389363
rtoes 11.5784
lfemur -21.3785 4.78731 -11.0201
ltibia 70.2951
lfoot -3.43668 -9.98227
ltoes -1.383
93
root 4.76226 17.8397 7.20171 -178.335 3.00993 -173.147
lowerback 2.01137 -0.230989 2.80969
upperback 1.71749 -0.00956459 4.36168
thorax 0.630743 0.11496 2.90873
lowerneck -18.1635 -3.10382 -10.6487
upperneck 21.8571 -2.10374 5.34366
head 10.1682 -1.06446 3.40718
rclavicle -2.83268e-015 -1.98785e-014
rhumerus -32.3739 -6.40106 -82.3217
rradius 30.2055
rwrist -11.3872
rhand -12.4437 18.2386
rfingers 7.12502
rthumb 13.6294 -11.2952
lclavicle -2.83268e-015 -1.98785e-014
lhumerus -37.553 9.58248 84.3522
lradius 34.4535
lwrist -7.44301
lhand 2.64292 37.5528
lfingers 7.12502
lthumb 28.1193 65.4646
rfemur -8.71507 2.99331 31.3751
rtibia 21.0553
rfoot -9.23192 -0.0848497
rtoes 12.1584
lfemur -22.4908 5.24018 -11.0002
ltibia 70.0486
lfoot -4.27869 -10.0625
ltoes -0.771229
94
root 4.76252 17.8311 7.06301 -178.269 3.3897 -172.881
lowerback 1.86803 -0.119359 3.05784
upperback 1.82455 0.14151 4.42713
thorax 0.816733 0.199201 2.83634
lowerneck -18.2645 -3.07626 -10.6503
upperneck 21.7254 -2.0513 5.28539
head 10.1344 -1.04949 3.38997
rclavicle -1.63997e-015 1.94809e-014
rhumerus -31.9154 -5.7073 -82.5021
rradius 30.4796
rwrist -12.1086
rhand -12.2108 18.0017
rfingers 7.12502
rthumb 13.8539 -11.5169
lclavicle -1.63997e-015 1.94809e-014
lhumerus -37.6308 10.0073 84.2888
lradius 34.7451
lwrist -7.25047
lhand 2.59671 37.7259
lfingers 7.12502
lthumb 28.0751 65.6449
rfemur -8.30197 2.80173 31.6599
rtibia 21.2422
rfoot -9.67469 0.349916
rtoes 12.4058
lfemur -23.6287 5.71802 -10.8388
ltibia 69.7693
lfoot -5.90859 -10.0618
ltoes -2.69914
95
root 4.76403 17.8146 6.92207 -178.219 3.5141 -172.608
lowerback 1.71738 -0.0244678 3.35819
upperback 1.84688 0.267387 4.43832
thorax 0.921759 0.268865 2.67915
lowerneck -17.9148 -3.14829 -10.8026
upperneck 21.454 -2.19696 5.47241
head 9.98858 -1.1083 3.45586
rclavicle 2.08724e-015 5.40694e-014
rhumerus -31.6373 -5.24132 -82.6457
rradius 30.6724
rwrist -11.9221
rhand -11.6317 18.0293
rfingers 7.12502
rthumb 14.4119 -11.4503
lclavicle 2.08724e-015 5.40694e-014
lhumerus -37.7643 10.0782 84.2226
lradius 34.9879
lwrist -6.89025
lhand 2.95405 38.7844
lfingers 7.12502
lthumb 28.4167 66.647
rfemur -7.8955 2.52528 31.9547
rtibia 21.4432
rfoot -10.2159 0.737688
rtoes 13.5186
lfemur -24.7599 5.94373 -10.6619
ltibia 69.4125
lfoot -7.48355 -10.0322
ltoes -4.82495
96
root 4.75898 17.791 6.79115 -178.108 3.29852 -172.432
lowerback 1.70175 -0.0390113 3.7136
upperback 1.725 0.25492 4.37669
thorax 0.806898 0.264509 2.4155
lowerneck -17.6268 -3.19521 -10.8562
upperneck 21.3396 -2.29844 5.56743
head 9.90505 -1.14807 3.48266
rclavicle 3.27995e-015 -3.29983e-014
rhumerus -31.5461 -4.59131 -82.9814
rradius 30.9707
rwrist -11.0846
rhand -12.5151 17.0333
rfingers 7.12502
rthumb 13.5606 -12.5051
lclavicle 3.27995e-015 -3.29983e-014
lhumerus -38.0046 10.013 84.1523
lradius 35.1621
lwrist -6.33707
lhand 1.97201 38.4493
lfingers 7.12502
lthumb 27.4778 66.4648
rfemur -7.60488 2.20659 32.1111
rtibia 21.5554
rfoot -11.0114 1.04055
rtoes 13.7023
lfemur -26.0356 5.65062 -10.625
ltibia 68.9234
lfoot -8.21669 -9.95819
ltoes -6.36164
97
root 4.74153 17.7777 6.66232 -177.91 3.23941 -172.126
lowerback 1.63821 0.0792802 4.37234
upperback 1.63135 0.423969 4.30185
thorax 0.748465 0.356275 1.96805
lowerneck -17.527 -3.3089 -10.8642
upperneck 21.2757 -2.5046 5.72029
head 9.8842 -1.22698 3.509
rclavicle 2.13694e-015 7.55382e-015
rhumerus -31.3754 -4.94777 -82.7946
rradius 31.9125
rwrist -12.4901
rhand -10.2489 14.6402
rfingers 7.12502
rthumb 15.744 -14.7395
lclavicle 2.13694e-015 7.55382e-015
lhumerus -38.0512 9.86737 84.1372
lradius 35.1894
lwrist -6.36268
lhand 1.58744 38.0766
lfingers 7.12502
lthumb 27.11 66.1499
rfemur -7.46486 1.85458 32.3541
rtibia 21.7558
rfoot -11.5877 1.31258
rtoes 13.0376
lfemur -27.3396 5.39956 -10.4813
ltibia 68.3143
lfoot -8.50533 -9.87426
ltoes -5.49696
